Coordinates
version=1
nRows=15
nColumns=46
inDegrees=yes

Units are S.I. units (second, meters, Newtons, ...)
Angles are in degrees.

endheader
time	pelvis_tilt	pelvis_list	pelvis_rotation	pelvis_tx	pelvis_ty	pelvis_tz	bb_angle	bb_tx	bb_ty	bb_tz	hip_flexion_r	hip_adduction_r	hip_rotation_r	knee_angle_r	knee_angle_r_beta	ankle_angle_r	subtalar_angle_r	mtp_angle_r	crank_angle_r	hip_flexion_l	hip_adduction_l	hip_rotation_l	knee_angle_l	knee_angle_l_beta	ankle_angle_l	subtalar_angle_l	mtp_angle_l	crank_angle_l	lumbar_extension	lumbar_bending	lumbar_rotation	arm_flex_r	arm_add_r	arm_rot_r	elbow_flex_r	pro_sup_r	wrist_flex_r	wrist_dev_r	arm_flex_l	arm_add_l	arm_rot_l	elbow_flex_l	pro_sup_l	wrist_flex_l	wrist_dev_l
      2.50500000	    -19.02580693	      2.57401261	      4.05984534	      0.32891979	      1.11241566	     -0.24414271	      0.00000000	      0.50000000	      0.00000000	      0.25000000	     36.30289831	     -8.17704660	     -7.81591274	     36.21438721	      0.63206029	     -8.98697961	     -9.80071915	      0.00000000	      0.00000000	     72.46771177	      2.36160437	      6.69812537	    114.01802621	      1.98998996	     -0.25451067	     -8.73625778	      0.00000000	      0.00000000	    -56.43148940	      2.87100878	     -6.32958044	     54.32352452	    -13.62982560	     25.77357917	     68.56782897	     48.00504679	      0.00000000	      0.00000000	     52.51525454	    -21.51823169	     21.75003353	     70.59119378	     47.53369930	      0.00000000	      0.00000000
      2.51000000	    -18.96015946	      2.63874944	      4.25704867	      0.32909891	      1.11344882	     -0.24487460	      0.00000000	      0.50000000	      0.00000000	      0.25000000	     35.48368821	     -8.42888999	     -8.39812149	     35.36079128	      0.61716223	     -9.95442854	     -9.50707551	      0.00000000	      0.00000000	     72.98121069	      2.56598893	      6.61141692	    114.32114103	      1.99528032	      0.21383979	     -8.65887514	      0.00000000	      0.00000000	    -56.46831860	      2.70390046	     -6.44469884	     54.27386761	    -13.62929332	     25.38554038	     67.96588421	     47.93576787	      0.00000000	      0.00000000	     52.85297422	    -21.27234811	     22.21334708	     70.28861429	     47.55732160	      0.00000000	      0.00000000
      2.51500000	    -19.13265938	      2.78304011	      4.34749339	      0.32913523	      1.11411901	     -0.24541547	      0.00000000	      0.50000000	      0.00000000	      0.25000000	     35.01646623	     -8.68958762	     -8.76076361	     34.64877697	      0.60473524	    -10.69003093	     -9.04873490	      0.00000000	      0.00000000	     73.75369715	      2.72386465	      6.39556252	    114.59273128	      2.00002046	      0.60143170	     -8.69900629	      0.00000000	      0.00000000	    -56.32553068	      2.37206853	     -6.68998101	     54.16971801	    -13.70671294	     25.30887704	     67.82017482	     47.92029260	      0.00000000	      0.00000000	     53.02689711	    -21.19714404	     22.30886964	     70.27119315	     47.56837925	      0.00000000	      0.00000000
      2.52000000	    -19.26357939	      2.89279421	      4.48398954	      0.32918787	      1.11496858	     -0.24603795	      0.00000000	      0.50000000	      0.00000000	      0.25000000	     34.48134143	     -8.95705233	     -9.23704135	     33.90976761	      0.59183709	    -11.53447992	     -8.59047936	      0.00000000	      0.00000000	     74.46540378	      2.83853185	      6.17421918	    114.80678387	      2.00375638	      0.97729805	     -8.67690257	      0.00000000	      0.00000000	    -56.21496057	      2.12608155	     -6.88800695	     54.02677925	    -13.80158739	     25.20909513	     67.57130598	     47.88807328	      0.00000000	      0.00000000	     53.20849202	    -21.04540614	     22.48295070	     70.24474420	     47.58611896	      0.00000000	      0.00000000
      2.52500000	    -19.27931571	      2.89387512	      4.67097094	      0.32952035	      1.11604977	     -0.24679708	      0.00000000	      0.50000000	      0.00000000	      0.25000000	     33.73137906	     -9.13802313	     -9.87855465	     33.06061651	      0.57701661	    -12.51422337	     -8.23474686	      0.00000000	      0.00000000	     75.01670781	      2.94053267	      6.09098909	    114.99595792	      2.00705809	      1.48689485	     -8.44127215	      0.00000000	      0.00000000	    -56.20239070	      1.96127315	     -6.83714407	     53.92652970	    -13.81039857	     24.58353438	     66.85012640	     47.82436713	      0.00000000	      0.00000000	     53.74521226	    -20.71471596	     23.33081984	     69.53387130	     47.59915376	      0.00000000	      0.00000000
      2.53000000	    -19.52022424	      3.02369812	      4.82175983	      0.32935356	      1.11695844	     -0.24748386	      0.00000000	      0.50000000	      0.00000000	      0.25000000	     33.34687909	     -9.42410597	    -10.30685539	     32.35557135	      0.56471125	    -13.42099559	     -7.75714383	      0.00000000	      0.00000000	     75.82717169	      3.12043085	      5.85159345	    115.09043262	      2.00870699	      1.78687000	     -8.45035226	      0.00000000	      0.00000000	    -56.05239764	      1.68263843	     -7.04037421	     53.83165323	    -13.97460248	     24.46062897	     66.70042039	     47.81441844	      0.00000000	      0.00000000	     53.92231947	    -20.57244365	     23.50022215	     69.54637455	     47.62698188	      0.00000000	      0.00000000
      2.53500000	    -19.76675000	      3.11561038	      4.96459524	      0.32917804	      1.11789637	     -0.24818023	      0.00000000	      0.50000000	      0.00000000	      0.25000000	     32.97095175	     -9.65525323	    -10.69878685	     31.66007054	      0.55257247	    -14.21129010	     -7.32817857	      0.00000000	      0.00000000	     76.61316097	      3.23542131	      5.62314569	    115.13010446	      2.00939939	      2.09553297	     -8.45064918	      0.00000000	      0.00000000	    -55.93323508	      1.43619830	     -7.23245408	     53.80041818	    -14.11894284	     24.34382331	     66.55268892	     47.79380449	      0.00000000	      0.00000000	     54.14061771	    -20.45448407	     23.62639204	     69.60117609	     47.65174981	      0.00000000	      0.00000000
      2.54000000	    -19.84446983	      3.14086071	      5.18803149	      0.32907360	      1.11914776	     -0.24894415	      0.00000000	      0.50000000	      0.00000000	      0.25000000	     32.35918058	     -9.84451062	    -11.25798940	     30.89156086	      0.53915945	    -15.30374769	     -7.08516560	      0.00000000	      0.00000000	     77.20230771	      3.38505648	      5.49333562	    115.13978587	      2.00956836	      2.52614439	     -8.22049602	      0.00000000	      0.00000000	    -55.96044751	      1.29181570	     -7.25692570	     53.76804083	    -14.27702795	     23.96025867	     66.11722301	     47.74436950	      0.00000000	      0.00000000	     54.49241843	    -20.22468762	     24.20679434	     69.50137756	     47.71313001	      0.00000000	      0.00000000
      2.54500000	    -20.14675770	      3.25973025	      5.33118783	      0.32879912	      1.12017947	     -0.24965747	      0.00000000	      0.50000000	      0.00000000	      0.25000000	     32.09237793	    -10.09393509	    -11.60369746	     30.27291415	      0.52836203	    -16.16636187	     -6.67865014	      0.00000000	      0.00000000	     77.99409330	      3.48982961	      5.17931012	    115.05589484	      2.00810419	      2.96755986	     -8.09950502	      0.00000000	      0.00000000	    -55.83028297	      1.03010808	     -7.46409324	     53.77992715	    -14.40130137	     23.83515152	     65.97174357	     47.72495575	      0.00000000	      0.00000000	     54.75898889	    -20.13731306	     24.34732155	     69.57548323	     47.74239377	      0.00000000	      0.00000000
      2.55000000	    -20.43693250	      3.34479291	      5.48017993	      0.32850494	      1.12129734	     -0.25034585	      0.00000000	      0.50000000	      0.00000000	      0.25000000	     31.83674765	    -10.32103743	    -12.01522826	     29.69528862	      0.51828056	    -17.06877958	     -6.32194148	      0.00000000	      0.00000000	     78.72563859	      3.58358527	      4.93256750	    114.89243517	      2.00525128	      3.30664426	     -8.02447819	      0.00000000	      0.00000000	    -55.73795445	      0.77943239	     -7.64654913	     53.82741610	    -14.52751303	     23.69810459	     65.79023776	     47.69531691	      0.00000000	      0.00000000	     55.00013900	    -20.01098485	     24.51703839	     69.68436381	     47.77903399	      0.00000000	      0.00000000
      2.55500000	    -20.70544373	      3.44132257	      5.66377240	      0.32820454	      1.12249789	     -0.25114863	      0.00000000	      0.50000000	      0.00000000	      0.25000000	     31.55879039	    -10.56439018	    -12.39696066	     29.12112212	      0.50825946	    -18.09940013	     -6.05030659	      0.00000000	      0.00000000	     79.39703670	      3.71992188	      4.65978717	    114.69255498	      2.00176271	      3.68024495	     -7.94941102	      0.00000000	      0.00000000	    -55.67261080	      0.58869367	     -7.82947179	     53.87608257	    -14.67377119	     23.51257157	     65.51633133	     47.64951828	      0.00000000	      0.00000000	     55.19550151	    -19.89920837	     24.76611875	     69.74379399	     47.81731501	      0.00000000	      0.00000000
      2.56000000	    -20.99184569	      3.51506088	      5.86129076	      0.32743894	      1.12386647	     -0.25183167	      0.00000000	      0.50000000	      0.00000000	      0.25000000	     31.35139575	    -10.76862095	    -12.71592972	     28.59247858	      0.49903289	    -19.05031020	     -5.83622506	      0.00000000	      0.00000000	     80.08819093	      3.83106081	      4.40485674	    114.38752186	      1.99643888	      3.91950205	     -7.97214406	      0.00000000	      0.00000000	    -55.66269316	      0.38295727	     -8.01643820	     54.06649578	    -14.76988316	     23.33686444	     65.27653676	     47.60526213	      0.00000000	      0.00000000	     55.57470773	    -19.78559016	     24.96683571	     69.86209443	     47.85666275	      0.00000000	      0.00000000
      2.56500000	    -21.19572110	      3.56061468	      6.00692919	      0.32747300	      1.12546552	     -0.25245008	      0.00000000	      0.50000000	      0.00000000	      0.25000000	     30.96019986	    -10.88897125	    -13.05611956	     27.94102590	      0.48766290	    -20.30837120	     -5.96531588	      0.00000000	      0.00000000	     80.53010350	      3.91210372	      4.18492233	    114.01728789	      1.98997708	      4.29785267	     -7.98139031	      0.00000000	      0.00000000	    -55.65446281	      0.16281485	     -8.15199104	     54.27383457	    -14.42222707	     22.69042798	     64.07549379	     47.49273187	      0.00000000	      0.00000000	     56.09623308	    -19.98259465	     26.26856367	     69.65542574	     47.99775454	      0.00000000	      0.00000000
      2.57000000	    -21.48990002	      3.64854097	      6.14984614	      0.32678320	      1.12695196	     -0.25320764	      0.00000000	      0.50000000	      0.00000000	      0.25000000	     30.81480055	    -11.09454806	    -13.27297382	     27.51194347	      0.48017400	    -21.17176404	     -5.68391663	      0.00000000	      0.00000000	     81.08901488	      4.05227159	      3.89818224	    113.58816931	      1.98248755	      4.84504876	     -7.94429653	      0.00000000	      0.00000000	    -55.67919489	     -0.05602958	     -8.37715952	     54.47795856	    -14.54699006	     22.58860588	     63.94441535	     47.47678717	      0.00000000	      0.00000000	     56.42017649	    -19.82646034	     26.33557518	     69.83686697	     48.03548331	      0.00000000	      0.00000000
      2.57500000	    -21.78341784	      3.70029935	      6.30604803	      0.32640788	      1.12847590	     -0.25401308	      0.00000000	      0.50000000	      0.00000000	      0.25000000	     30.62885642	    -11.26771350	    -13.55303617	     27.05013938	      0.47211400	    -22.09536357	     -5.47317075	      0.00000000	      0.00000000	     81.54600705	      4.18813623	      3.66254212	    113.11643552	      1.97425424	      5.33480026	     -8.02409982	      0.00000000	      0.00000000	    -55.70760757	     -0.23589047	     -8.55967453	     54.63708851	    -14.64819861	     22.47638881	     63.72393010	     47.44629968	      0.00000000	      0.00000000	     56.68109387	    -19.67792586	     26.46466677	     70.02954935	     48.08193533	      0.00000000	      0.00000000
